# xmcd CD database file
#
# Track frame offsets:
#	150
#	6885
#	24187
#	41642
#	64700
#	91085
#	114560
#	130295
#	148390
#	170135
#	196532
#
# Disc length: 2979 seconds
#
# Revision: 0
# Processed by: cddbd v1.5.1PL0 Copyright (c) Steve Scherf et al.
# Submitted via: CDex 1.51
#
DISCID=900ba10b
DTITLE=Bruce Dickinson - Tyranny Of Souls
DYEAR=2005
DGENRE=Hard Rock
TTITLE0=Mars Within (Intro)
TTITLE1=Abduction
TTITLE2=Soul Intruders
TTITLE3=Kill Devil Hill
TTITLE4=Navigate The Seas Of The Sun
TTITLE5=River Of No Return
TTITLE6=Power Of The Sun
TTITLE7=Devil On A Hog
TTITLE8=Believil
TTITLE9=Tyranny Of Souls
TTITLE10=Eternal
EXTD=YEAR: 2005
EXTT0=
EXTT1=
EXTT2=
EXTT3=
EXTT4=
EXTT5=
EXTT6=
EXTT7=
EXTT8=
EXTT9=
EXTT10=
PLAYORDER=
